<?xml version="1.0" encoding="UTF-8"?>
<svg width="7px" height="10px" viewBox="0 0 7 10" version="1.1" xmlns="http://www.w3.org/2000/svg" xmlns:xlink="http://www.w3.org/1999/xlink">
    <!-- Generator: sketchtool 63.1 (101010) - https://sketch.com -->
    <title>E9999778-9311-4A7C-A639-D64C574EC5CA</title>
    <desc>Created with sketchtool.</desc>
    <g id="UI-KIT" stroke="none" stroke-width="1" fill="none" fill-rule="evenodd">
        <g id="Iconography" transform="translate(-330.000000, -121.000000)" fill="#444547" fill-rule="nonzero">
            <g id="All-Iconography" transform="translate(64.000000, 58.000000)">
                <g id="Stacked-Group" transform="translate(9.000000, 52.000000)">
                    <g id="Carot-2-Copy" transform="translate(244.000000, 0.000000)">
                        <g id="Icon-/-Caret-/-Down" transform="translate(6.000000, 6.000000)">
                            <path d="M7.1550449,7.20737791 C9.27961976,9.7225314 10.3950391,10.9801081 10.501303,10.9801081 C10.6075669,10.9801081 11.7323786,9.7225314 13.8757381,7.20737791 C14.2658059,6.9348262 14.5806532,6.9348262 14.82028,7.20737791 C15.0599067,7.47992962 15.0599067,7.82525723 14.82028,8.24336074 C12.1952768,11.4144536 10.7556178,13 10.501303,13 C10.2469883,13 8.80732929,11.4144536 6.1823261,8.24336074 C5.93922463,7.8292094 5.93922463,7.48388178 6.1823261,7.20737791 C6.42542756,6.93087403 6.74966716,6.93087403 7.1550449,7.20737791 Z" id="Icon-/-Caret-" transform="translate(10.500000, 10.000000) rotate(-90.000000) translate(-10.500000, -10.000000) "></path>
                        </g>
                    </g>
                </g>
            </g>
        </g>
    </g>
</svg>