<svg xmlns="http://www.w3.org/2000/svg" viewBox="0 0 346.38049 131.05283"><title>logo</title><path d="M73.33691,88.85274a25.69586,25.69586,0,0,1-9.41186-9.83347,27.95731,27.95731,0,0,1-3.38049-13.63811,28.20477,28.20477,0,0,1,3.38049-13.82871,24.6134,24.6134,0,0,1,9.451-9.64286,26.89884,26.89884,0,0,1,13.67471-3.49537,25.73052,25.73052,0,0,1,10.68049,2.11313,30.64037,30.64037,0,0,1,8.989,6.41511l-2.99675,3.07248a23.47471,23.47471,0,0,0-7.29873-5.14774,23.044,23.044,0,0,0-9.374-1.766A21.20467,21.20467,0,0,0,75.94991,46.0197a20.38191,20.38191,0,0,0-7.60674,7.99049,24.90312,24.90312,0,0,0,0,22.66495A20.63211,20.63211,0,0,0,87.05075,87.81637a20.4634,20.4634,0,0,0,9.68073-2.305,21.48508,21.48508,0,0,0,7.37574-6.37724l3.6115,2.84274a24.608,24.608,0,0,1-8.68224,7.68248,24.94331,24.94331,0,0,1-11.98573,2.84275A25.9572,25.9572,0,0,1,73.33691,88.85274Z"/><path d="M175.50529,90.81186a26.27654,26.27654,0,0,1-8.14448-4.61l2.613-3.994a21.33847,21.33847,0,0,0,6.95286,4.148,24.1059,24.1059,0,0,0,8.41336,1.4605,14.19822,14.19822,0,0,0,8.681-2.613,8.33306,8.33306,0,0,0,3.5345-7.06773,7.88709,7.88709,0,0,0-1.69025-5.14774,13.224,13.224,0,0,0-4.34112-3.41962,57.98055,57.98055,0,0,0-6.79885-2.80361,39.41224,39.41224,0,0,1-11.602-5.95437,11.27527,11.27527,0,0,1-4.302-9.33485,11.36655,11.36655,0,0,1,2.18886-6.95286,13.99363,13.99363,0,0,1,5.8395-4.533,19.84624,19.84624,0,0,1,7.95135-1.57538,27.10563,27.10563,0,0,1,8.29849,1.2295,25.56945,25.56945,0,0,1,7.52974,3.99524l-2.305,3.84124a24.48722,24.48722,0,0,0-6.37724-3.30349,21.73134,21.73134,0,0,0-6.915-1.07549,13.85317,13.85317,0,0,0-7.79861,2.151,6.7923,6.7923,0,0,0-3.26436,5.99223,7.35537,7.35537,0,0,0,1.72812,4.99374,13.23624,13.23624,0,0,0,4.22624,3.22775,62.27126,62.27126,0,0,0,6.64486,2.68874,40.05925,40.05925,0,0,1,11.87085,6.22324,11.68692,11.68692,0,0,1,4.18712,9.52673,13.21665,13.21665,0,0,1-2.305,7.75948,14.82625,14.82625,0,0,1-6.22324,5.07074,21.0715,21.0715,0,0,1-8.758,1.76725A28.77867,28.77867,0,0,1,175.50529,90.81186Z"/><path d="M222.278,90.31324a17.02575,17.02575,0,0,1-7.223-6.41511,18.84739,18.84739,0,0,1-2.64961-10.21848V39.33572h5.07074V73.60265q0,6.99074,4.071,10.6401,4.07288,3.65063,10.91023,3.65063,6.75972,0,10.79536-3.65063,4.03311-3.64684,4.03311-10.6401V39.33572h5.07074V73.67965A18.89081,18.89081,0,0,1,249.70572,83.859a17.00341,17.00341,0,0,1-7.18386,6.45424,22.83876,22.83876,0,0,1-10.06448,2.18887A23.2618,23.2618,0,0,1,222.278,90.31324Z"/><path d="M307.84313,91.42661v.154h-5.30048l-5.53149-11.98572H268.42971l-5.53148,11.98572h-5.30175v-.154L281.87468,38.952h1.69025ZM279.80069,54.85594l-9.22,20.12895h24.3552l-9.29573-20.12895q-1.99951-4.61062-2.91974-6.992Q281.79832,50.24595,279.80069,54.85594Z"/><path d="M316.1088,39.33572h5.07074v47.6349h25.201v4.61H316.1088Z"/><path d="M192.80767,102.61455v.10477L184.4751,126.461h-1.22067L177.502,113.87571q-.69679-1.60378-1.0452-2.64961a23.21291,23.21291,0,0,1-.977,2.64961L169.72741,126.461h-1.22066l-8.29723-23.74172v-.10477H164.533l4.14924,12.3417.24363.73215q.5226,1.63976.80157,2.82381.66273-1.88213,1.35952-3.52061l4.88139-10.94684h1.01112l4.70593,10.45832q1.08117,2.4407,1.60441,3.975.17419-.59266.871-2.8945l.31432-.90635,4.04447-12.06273Z"/><path d="M216.05077,126.21741v.10477h-4.2881l-1.95281-4.2881h-11.121l-1.91747,4.2881h-4.32344v-.06943l11.19173-23.77705h1.25474ZM202.6626,113.14356l-2.57892,5.64762h8.36666l-2.58018-5.64762a42.57065,42.57065,0,0,1-1.60315-4.04447Q203.50015,111.19138,202.6626,113.14356Z"/><path d="M233.284,106.4154h-6.69408v19.90678H222.476V106.4154h-6.72817v-3.80085H233.284Z"/><path d="M241.68217,125.13686a11.43007,11.43007,0,0,1-4.30577-4.4623,12.85,12.85,0,0,1-1.535-6.24091,12.536,12.536,0,0,1,1.58673-6.31033,11.47026,11.47026,0,0,1,4.37521-4.37521,12.60558,12.60558,0,0,1,6.34568-1.58673,13.0521,13.0521,0,0,1,4.8107.83692,13.45538,13.45538,0,0,1,4.1139,2.64961l-2.127,2.78972a9.50375,9.50375,0,0,0-6.69282-2.54483,8.16623,8.16623,0,0,0-4.254,1.09821,7.71636,7.71636,0,0,0-2.89324,3.0321,9.12,9.12,0,0,0-1.04646,4.41054,9.43519,9.43519,0,0,0,1.01112,4.3752,7.712,7.712,0,0,0,2.84148,3.10279,7.811,7.811,0,0,0,4.201,1.13356,8.67932,8.67932,0,0,0,3.9397-.87226,8.40692,8.40692,0,0,0,2.96393-2.47541l2.57892,2.64961a11.66273,11.66273,0,0,1-4.148,3.29465,12.52237,12.52237,0,0,1-5.404,1.13356A12.25076,12.25076,0,0,1,241.68217,125.13686Z"/><path d="M262.15321,102.61455h4.11391v9.86629h11.54012v-9.86629h4.1139v23.70763h-4.1139V116.28169H266.26712v10.04049h-4.11391Z"/><path d="M304.0635,122.6968v3.62538H288.8273V102.61455h14.92188v3.62665h-10.808v6.275h9.44846v3.52187H292.9412v6.65874Z"/><path d="M312.16507,126.02554a12.78555,12.78555,0,0,1-3.99146-2.14342l1.91747-3.20756a10.39059,10.39059,0,0,0,3.06743,1.795,9.97237,9.97237,0,0,0,3.556.64505,5.62784,5.62784,0,0,0,3.1558-.83692,2.64461,2.64461,0,0,0,1.27242-2.33529,2.71227,2.71227,0,0,0-1.30777-2.37064,15.737,15.737,0,0,0-3.81725-1.67384q-7.07783-2.30058-7.07783-7.21668a5.84953,5.84953,0,0,1,1.06414-3.5042,6.62957,6.62957,0,0,1,2.87556-2.24819,10.09826,10.09826,0,0,1,3.975-.76749,13.60213,13.60213,0,0,1,3.9397.55794,14.11205,14.11205,0,0,1,3.76423,1.848l-1.77734,3.06744a11.95057,11.95057,0,0,0-2.87683-1.41128,9.36237,9.36237,0,0,0-2.84148-.4355,5.266,5.266,0,0,0-2.80614.6968,2.207,2.207,0,0,0-1.13356,1.9869,2.58933,2.58933,0,0,0,1.23833,2.28353,16.06419,16.06419,0,0,0,3.60771,1.62208,15.075,15.075,0,0,1,5.38632,2.82381,5.7482,5.7482,0,0,1,1.93514,4.53173,6.34822,6.34822,0,0,1-1.11463,3.74783,7.20091,7.20091,0,0,1-3.03335,2.44006,10.42922,10.42922,0,0,1-4.2881.85459A14.72953,14.72953,0,0,1,312.16507,126.02554Z"/><polygon points="123.598 79.595 138.69 41.893 138.69 41.893 155.459 0 97.701 112.061 0 63.686 102.999 131.053 123.598 79.595 123.598 79.595" style="fill:#d50000"/><path d="M141.27153,47.47342l-2.42212,6.09712c.17811.4144.3615.83975.55478,1.28541l9.29572,20.12893H130.34248l-1.83137,4.61h22.26406l5.53148,11.98573h5.30052v-.154Z"/><path d="M337.082,104.61954a1.49708,1.49708,0,1,1,1.43067-1.4956A1.41591,1.41591,0,0,1,337.082,104.61954Z"/><path d="M335.75049,116.98283v-2.668l2.99853-2.63038v-1.79541h-2.99853v-2.729h9.31592v5.02979c0,2.105-1.26953,3.51953-3.15821,3.51953a3.03823,3.03823,0,0,1-2.54785-1.34326l-2.8125,2.6167Zm5.4751-4.88038c0,.502.25488.80176.68261.80176.41992,0,.6709-.2998.6709-.80176v-2.21338h-1.35351Z"/><path d="M339.68652,127.00773c-2.41992,0-4.04541-1.79737-4.04541-4.47217,0-2.67432,1.62549-4.47119,4.04541-4.47119h5.37989v2.73926h-5.293a1.74533,1.74533,0,0,0,0,3.4746h5.293v2.7295Z"/></svg>