<svg xmlns="http://www.w3.org/2000/svg" viewBox="0 0 431.81318 170.06172"><title>logo_2</title><path d="M77.81074,61.85128c21.27246,0,32.36475,7.4458,33.20068,24.23583h-20.209c-.75977-5.01416-4.63477-7.52148-12.9917-7.52148-11.69971,0-13.67529,4.93848-13.67529,10.56055,0,5.69775,2.05127,10.71191,13.67529,10.71191,8.35693,0,12.23193-2.583,12.9917-7.67334h20.209c-.83593,16.86621-11.85205,24.3877-33.20068,24.3877-23.3999,0-33.42822-8.88916-33.42822-27.42627C44.38252,70.66426,54.41084,61.85128,77.81074,61.85128Z"/><path d="M147.70234,106.21993H125.0622l-3.64648,9.57275H108.31661L133.658,62.611h17.38715l22.03272,53.18164H151.34931Zm-5.166-13.6753-6.15381-16.2583-6.1538,16.2583Z"/><path d="M189.02607,97.02706c0,2.58349,2.43115,4.33056,14.9668,4.33056,11.70019,0,13.44726-.75976,13.44726-2.73486,0-2.2793-1.74707-2.583-14.207-2.96289-24.00732-.75977-33.2002-4.71045-33.2002-17.09424,0-11.69971,11.47217-16.71435,32.44043-16.71435,20.74122,0,32.44092,5.01464,32.44092,18.61376H215.16132c0-2.811-4.55859-3.41894-14.207-3.41894-9.269,0-11.16846.45605-11.16846,2.50732s1.89942,1.9751,13.44727,2.43116c20.96875.83545,33.96045,2.27929,33.96045,16.18212,0,14.66309-12.15576,18.38575-33.96045,18.38575-21.8042,0-33.96-3.72266-33.96-19.52539Z"/><path d="M272.89374,116.55245c-23.3999,0-33.42822-8.88916-33.42822-27.42627V62.611h19.75293V89.12618c0,5.69775,2.05127,10.71191,13.67529,10.71191s13.6753-5.08984,13.6753-10.71191V62.611H306.322V89.12618C306.322,107.5876,296.21747,116.55245,272.89374,116.55245Z"/><path d="M349.77412,106.21993H327.13349l-3.64648,9.57275H301.75849L323.79072,62.611h29.32617l22.03223,53.18164H353.4206Zm-5.167-13.6753-6.15332-16.2583-6.15429,16.2583Z"/><path d="M431.363,99.07833v16.71435H376.66181V62.611h19.75293V99.07833Z"/><text transform="translate(154.25458 157.26631)" style="font-size:38.77425003051758px;font-family:MonumentExtended-Ultrabold, Monument Extended;font-weight:700"><tspan style="letter-spacing:-0.209999629098985em">W</tspan><tspan x="49.3208" y="0" style="letter-spacing:-0.1699919041261213em">A</tspan><tspan x="80.96045" y="0" style="letter-spacing:-0.009998783011789044em">T</tspan><tspan x="114.69385" y="0">CHES</tspan></text><polygon points="0 105.866 106.573 157.266 163.492 0 99.179 134.968 0 105.866" style="fill:#ff4b00"/><text transform="matrix(0, 0.59915, -1, 0, 414.41377, 131.14815)" style="font-size:20.47010612487793px;font-family:MonumentExtended-Ultrabold, Monument Extended;font-weight:700">.RU</text></svg>