<?xml version="1.0" encoding="UTF-8"?>
<svg width="10px" height="6px" viewBox="0 0 10 6" version="1.1" xmlns="http://www.w3.org/2000/svg" xmlns:xlink="http://www.w3.org/1999/xlink">
    <!-- Generator: sketchtool 63.1 (101010) - https://sketch.com -->
    <title>7EECEECF-CF52-4DB2-807B-C9A12F7AE79B</title>
    <desc>Created with sketchtool.</desc>
    <g id="UI-KIT" stroke="none" stroke-width="1" fill="none" fill-rule="evenodd">
        <g id="Iconography" transform="translate(-264.000000, -123.000000)" fill="#444547" fill-rule="nonzero">
            <g id="All-Iconography" transform="translate(64.000000, 58.000000)">
                <g id="Stacked-Group" transform="translate(9.000000, 52.000000)">
                    <g id="Carot-2-Copy-3" transform="translate(180.000000, 0.000000)">
                        <g id="Icon-/-Caret-/-Down" transform="translate(10.000000, 12.000000)">
                            <path d="M2.8920449,1.16737791 C5.01661976,3.6825314 6.13203913,4.94010814 6.23830303,4.94010814 C6.34456692,4.94010814 7.4693786,3.6825314 9.61273807,1.16737791 C10.0028059,0.894826197 10.3176532,0.894826197 10.55728,1.16737791 C10.7969067,1.43992962 10.7969067,1.78525723 10.55728,2.20336074 C7.93227676,5.37445358 6.49261778,6.96 6.23830303,6.96 C5.98398827,6.96 4.54432929,5.37445358 1.9193261,2.20336074 C1.67622463,1.7892094 1.67622463,1.44388178 1.9193261,1.16737791 C2.16242756,0.890874031 2.48666716,0.890874031 2.8920449,1.16737791 Z" id="Icon-/-Caret-"></path>
                        </g>
                    </g>
                </g>
            </g>
        </g>
    </g>
</svg>