<svg xmlns="http://www.w3.org/2000/svg" viewBox="0 0 155.86437 20.00946"><title>logo</title><path d="M0,4.75214H3.85156v5.92773H4.92139l4.5791-5.92773h4.19433L7.917,11.758l5.9917,7.97314H9.415l-4.49365-6.334H3.85156v6.334H0Z"/><path d="M19.67773,20.00946a6.8883,6.8883,0,0,1-2.11865-.31054,5.01131,5.01131,0,0,1-1.64746-.8667,4.25076,4.25076,0,0,1-1.102-1.3584,4.48857,4.48857,0,0,1-.48145-1.80859H17.709a1.93131,1.93131,0,0,0,.69532,1.188,2.05048,2.05048,0,0,0,1.27343.39551,2.41008,2.41008,0,0,0,1.52979-.46,2.4389,2.4389,0,0,0,.78076-1.57275H18.60742v-2.5249h3.35987a2.21213,2.21213,0,0,0-.792-1.41749,2.44675,2.44675,0,0,0-1.49756-.44433,1.90641,1.90641,0,0,0-1.3374.42334,2.22445,2.22445,0,0,0-.63135,1.20312H14.32812a4.83,4.83,0,0,1,.42774-1.69043A4.14115,4.14115,0,0,1,15.7832,9.385a4.86608,4.86608,0,0,1,1.63672-.93066A6.80452,6.80452,0,0,1,19.67773,8.112a6.66189,6.66189,0,0,1,2.23584.37452,5.2982,5.2982,0,0,1,1.84034,1.0913A5.20268,5.20268,0,0,1,24.99512,11.343a5.91368,5.91368,0,0,1,.46,2.39649v.42822a6.87188,6.87188,0,0,1-.43848,2.56787,5.05473,5.05473,0,0,1-1.20947,1.81885A4.98546,4.98546,0,0,1,21.978,19.6457,7.0498,7.0498,0,0,1,19.67773,20.00946Z"/><path d="M29.77734,13.88935,26.26807,8.38984h3.46679l2.56787,4.34423h.64161V8.38984h3.29541v4.34423h.64209l2.71728-4.34423H42.9375L39.40674,13.654l3.74463,6.07714h-3.6377l-2.63183-4.55761h-.64209v4.55761H32.94434V15.17353h-.66309L29.542,19.73114H26.03271Z"/><path d="M49.626,20.00946a7.43137,7.43137,0,0,1-2.32178-.353,4.8865,4.8865,0,0,1-3.11328-2.91016,6.79563,6.79563,0,0,1-.44922-2.57861v-.42822a6.34163,6.34163,0,0,1,.43848-2.46045,4.83247,4.83247,0,0,1,2.9956-2.814,6.89891,6.89891,0,0,1,2.23633-.353,5.72106,5.72106,0,0,1,4.23682,1.44434,5.691,5.691,0,0,1,1.43359,4.18311v1.17724h-7.96a2.921,2.921,0,0,0,.23535,1.13281,2.27911,2.27911,0,0,0,.55615.76661,2.15462,2.15462,0,0,0,.78125.44238,3.02772,3.02772,0,0,0,.93067.14013,3.18028,3.18028,0,0,0,1.4873-.291,1.41685,1.41685,0,0,0,.7168-.78809h3.03857A4.07451,4.07451,0,0,1,53.17822,19.092,6.20335,6.20335,0,0,1,49.626,20.00946Zm-.10694-9.2871a3.48021,3.48021,0,0,0-.8667.10693,2.15214,2.15214,0,0,0-.749.353,1.8453,1.8453,0,0,0-.53467.63134,2.16993,2.16993,0,0,0-.22461.94141h4.70752a2.19663,2.19663,0,0,0-.19287-.98389,1.73912,1.73912,0,0,0-.50244-.6206,1.89965,1.89965,0,0,0-.73828-.332A4.104,4.104,0,0,0,49.519,10.72236Z"/><path d="M57.31055,20.00946c-.11475,0-.27491-.0039-.48145-.01074a2.474,2.474,0,0,1-.48193-.05371V17.07782a1.78115,1.78115,0,0,0,.32129.02149.99559.99559,0,0,0,.64209-.22461,1.69782,1.69782,0,0,0,.4707-.749,6.0472,6.0472,0,0,0,.28857-1.36963,18.84186,18.84186,0,0,0,.0962-2.08643V8.38984h9.41552v11.3413H64.28613V11.10761H61.24756v2.00684a19.00692,19.00692,0,0,1-.25684,3.458,6.043,6.043,0,0,1-.749,2.11328,2.50412,2.50412,0,0,1-1.23,1.0459A4.81733,4.81733,0,0,1,57.31055,20.00946Z"/><path d="M70.05029,8.38984h6.07715a7.15654,7.15654,0,0,1,1.915.22509,3.59914,3.59914,0,0,1,1.30566.63086,2.4934,2.4934,0,0,1,.73829.95264,2.96809,2.96809,0,0,1,.23535,1.1875,2.63633,2.63633,0,0,1-.47119,1.5083,2.27577,2.27577,0,0,1-1.34766.93115,2.9775,2.9775,0,0,1,1.64746.98438,2.57963,2.57963,0,0,1,.59912,1.69043,2.91124,2.91124,0,0,1-1.04834,2.35351,4.80761,4.80761,0,0,1-3.14551.87744H70.05029Zm5.49951,4.42968a1.84688,1.84688,0,0,0,1.166-.26757.89921.89921,0,0,0,.31055-.7168.84778.84778,0,0,0-.32129-.7168,1.98018,1.98018,0,0,0-1.15528-.24609H73.3457v1.94726Zm.19239,4.4292q1.71167,0,1.71191-1.04834,0-1.06933-1.71191-1.06982H73.3457v2.11816Z"/><path d="M87.97119,20.00946a6.99387,6.99387,0,0,1-2.24658-.353,5.08018,5.08018,0,0,1-1.84033-1.08057,5.00978,5.00978,0,0,1-1.24121-1.82959,6.79563,6.79563,0,0,1-.44922-2.57861v-.42822A6.15015,6.15015,0,0,1,82.64307,11.3,4.90131,4.90131,0,0,1,83.88428,9.5456a5.37986,5.37986,0,0,1,1.84033-1.06983,7.12064,7.12064,0,0,1,4.49365,0A5.387,5.387,0,0,1,92.05811,9.5456,4.89544,4.89544,0,0,1,93.29932,11.3a6.15019,6.15019,0,0,1,.4497,2.43946v.42822a6.73233,6.73233,0,0,1-.4497,2.55713,5.004,5.004,0,0,1-1.24121,1.82959,5.21737,5.21737,0,0,1-1.83985,1.09131A6.819,6.819,0,0,1,87.97119,20.00946Zm0-2.71777a2.0741,2.0741,0,0,0,1.77588-.83984,3.76317,3.76317,0,0,0,.62061-2.28369v-.43067a3.35017,3.35017,0,0,0-.62061-2.1001,2.35539,2.35539,0,0,0-3.55176,0,3.35017,3.35017,0,0,0-.6206,2.1001v.43067a3.74527,3.74527,0,0,0,.6206,2.30517A2.0953,2.0953,0,0,0,87.97119,17.29169Z"/><path d="M98.4458,11.10761H94.95752V8.38984H105.229v2.71777h-3.48779v8.62353H98.4458Z"/><path d="M113.67236,15.73163a7.6652,7.6652,0,0,1-1.13379.51221,4.94385,4.94385,0,0,1-1.66943.23486,4.2742,4.2742,0,0,1-3.1665-1.02441,4.28589,4.28589,0,0,1-1.00586-3.11572V8.38984h3.29541v3.63769a1.81726,1.81726,0,0,0,.40625,1.3374,2.0388,2.0388,0,0,0,1.43408.396,3.36892,3.36892,0,0,0,1.19824-.18164,1.93709,1.93709,0,0,0,.6416-.353V8.38984h3.29541v11.3413h-3.29541Z"/><path d="M124.9834,20.00946a7.43142,7.43142,0,0,1-2.32178-.353,4.8865,4.8865,0,0,1-3.11328-2.91016,6.79582,6.79582,0,0,1-.44922-2.57861v-.42822a6.34163,6.34163,0,0,1,.43848-2.46045,4.83247,4.83247,0,0,1,2.9956-2.814,6.89891,6.89891,0,0,1,2.23633-.353,5.72106,5.72106,0,0,1,4.23682,1.44434,5.691,5.691,0,0,1,1.43359,4.18311v1.17724h-7.96a2.921,2.921,0,0,0,.23535,1.13281,2.27911,2.27911,0,0,0,.55615.76661,2.15462,2.15462,0,0,0,.78125.44238,3.02777,3.02777,0,0,0,.93067.14013,3.18028,3.18028,0,0,0,1.4873-.291,1.41685,1.41685,0,0,0,.7168-.78809h3.03857a4.07451,4.07451,0,0,1-1.69043,2.77246A6.20333,6.20333,0,0,1,124.9834,20.00946Zm-.10694-9.2871a3.48013,3.48013,0,0,0-.86669.10693,2.1521,2.1521,0,0,0-.749.353,1.8453,1.8453,0,0,0-.53467.63134,2.17007,2.17007,0,0,0-.22461.94141H127.209a2.19663,2.19663,0,0,0-.19287-.98389,1.73912,1.73912,0,0,0-.50244-.6206,1.89959,1.89959,0,0,0-.73828-.332A4.1039,4.1039,0,0,0,124.87646,10.72236Z"/><path d="M137.73877,20.00946a7.11552,7.11552,0,0,1-2.32178-.36376,4.99149,4.99149,0,0,1-1.82959-1.09131,4.93929,4.93929,0,0,1-1.19824-1.81885,7.00957,7.00957,0,0,1-.42773-2.56787v-.42822a5.90549,5.90549,0,0,1,.46-2.39649,5.18908,5.18908,0,0,1,1.24121-1.76514,5.30951,5.30951,0,0,1,1.82959-1.0913,6.632,6.632,0,0,1,2.24658-.37452,6.80647,6.80647,0,0,1,2.25781.34229,4.87548,4.87548,0,0,1,1.63672.93066,4.15414,4.15414,0,0,1,1.02734,1.38037,4.85118,4.85118,0,0,1,.42774,1.69043h-3.38086a2.23092,2.23092,0,0,0-.63135-1.20312,1.90887,1.90887,0,0,0-1.3374-.42334,2.257,2.257,0,0,0-1.72266.71924,3.08916,3.08916,0,0,0-.67382,2.1792v.42968a3.51021,3.51021,0,0,0,.65234,2.34034,2.194,2.194,0,0,0,1.74414.751,2.05249,2.05249,0,0,0,1.27344-.39551,1.93578,1.93578,0,0,0,.69531-1.188h3.38086a4.61188,4.61188,0,0,1-.4707,1.80859,4.08254,4.08254,0,0,1-1.10206,1.3584,5.17227,5.17227,0,0,1-1.64746.8667A6.86273,6.86273,0,0,1,137.73877,20.00946Z"/><rect x="145.07526" y="2.04645" width="3.16665" height="8.94113" rx="1.58332" transform="translate(50.173 117.15943) rotate(-51.45434)" style="fill:#d40061"/><rect x="150.01553" y="-0.93778" width="3.16665" height="11.7751" rx="1.58332" transform="translate(36.11597 -93.3885) rotate(38.54564)" style="fill:#d40061"/></svg>